<svg width="150" height="60" viewBox="0 0 150 60" fill="none" xmlns="http://www.w3.org/2000/svg">
<path d="M25.1165 24.2727C25.0014 23.3011 24.5348 22.5469 23.7166 22.0099C22.8984 21.473 21.8949 21.2045 20.706 21.2045C19.8366 21.2045 19.076 21.3452 18.424 21.6264C17.7784 21.9077 17.2734 22.2944 16.9091 22.7866C16.5511 23.2788 16.3722 23.8381 16.3722 24.4645C16.3722 24.9886 16.4968 25.4393 16.7461 25.8164C17.0018 26.1871 17.3278 26.4972 17.7241 26.7464C18.1204 26.9893 18.5359 27.1907 18.9705 27.3505C19.4052 27.5039 19.8047 27.6286 20.169 27.7244L22.1634 28.2614C22.6747 28.3956 23.2436 28.581 23.87 28.8175C24.5028 29.054 25.1069 29.3768 25.6822 29.7859C26.2638 30.1886 26.7433 30.7063 27.1204 31.3391C27.4975 31.9719 27.6861 32.7486 27.6861 33.669C27.6861 34.7301 27.408 35.6889 26.8519 36.5455C26.3022 37.402 25.4968 38.0827 24.4357 38.5877C23.381 39.0927 22.0994 39.3452 20.5909 39.3452C19.1847 39.3452 17.967 39.1183 16.9379 38.6644C15.9151 38.2106 15.1097 37.5778 14.5217 36.766C13.94 35.9542 13.6108 35.0114 13.5341 33.9375H15.9886C16.0526 34.679 16.3018 35.2926 16.7365 35.7784C17.1776 36.2578 17.7337 36.6158 18.4048 36.8523C19.0824 37.0824 19.8111 37.1974 20.5909 37.1974C21.4986 37.1974 22.3136 37.0504 23.0359 36.7564C23.7582 36.456 24.3303 36.0405 24.7521 35.5099C25.174 34.973 25.3849 34.3466 25.3849 33.6307C25.3849 32.9787 25.2028 32.4482 24.8384 32.0391C24.4741 31.63 23.9947 31.2976 23.4002 31.0419C22.8058 30.7862 22.1634 30.5625 21.473 30.3707L19.0568 29.6804C17.5227 29.2393 16.3082 28.6097 15.4134 27.7915C14.5185 26.9734 14.071 25.9027 14.071 24.5795C14.071 23.4801 14.3683 22.5213 14.9627 21.7031C15.5636 20.8786 16.369 20.2393 17.3789 19.7855C18.3952 19.3253 19.5298 19.0952 20.7827 19.0952C22.0483 19.0952 23.1733 19.3221 24.1577 19.7759C25.142 20.2234 25.9219 20.837 26.4972 21.6168C27.0788 22.3967 27.3857 23.282 27.4176 24.2727H25.1165ZM41.5672 19.3636V39H39.1894V19.3636H41.5672ZM53.9286 39V19.3636H60.7937C62.1616 19.3636 63.2898 19.6001 64.1783 20.0732C65.0668 20.5398 65.7283 21.1694 66.163 21.962C66.5977 22.7482 66.815 23.6207 66.815 24.5795C66.815 25.4233 66.6648 26.12 66.3643 26.6697C66.0703 27.2195 65.6804 27.6541 65.1946 27.9737C64.7152 28.2933 64.1942 28.5298 63.6317 28.6832V28.875C64.2326 28.9134 64.8366 29.1243 65.4439 29.5078C66.0511 29.8913 66.5593 30.4411 66.9684 31.157C67.3775 31.8729 67.582 32.7486 67.582 33.7841C67.582 34.7685 67.3583 35.6538 66.9109 36.44C66.4634 37.2262 65.7571 37.8494 64.7919 38.3097C63.8267 38.7699 62.5707 39 61.0238 39H53.9286ZM56.3065 36.8906H61.0238C62.5771 36.8906 63.6797 36.5902 64.3317 35.9893C64.9901 35.3821 65.3192 34.647 65.3192 33.7841C65.3192 33.1193 65.1499 32.5057 64.8111 31.9432C64.4723 31.3743 63.9897 30.9205 63.3633 30.5817C62.7369 30.2365 61.9954 30.0639 61.1388 30.0639H56.3065V36.8906ZM56.3065 27.9929H60.717C61.4329 27.9929 62.0785 27.8523 62.6538 27.571C63.2354 27.2898 63.6957 26.8935 64.0344 26.3821C64.3796 25.8707 64.5522 25.2699 64.5522 24.5795C64.5522 23.7166 64.2518 22.9847 63.6509 22.3839C63.0501 21.7766 62.0977 21.473 60.7937 21.473H56.3065V27.9929ZM81.4608 19.3636V39H79.0829V19.3636H81.4608ZM93.8222 39V19.3636H100.457C101.991 19.3636 103.25 19.6257 104.235 20.1499C105.219 20.6676 105.948 21.3803 106.421 22.288C106.894 23.1957 107.13 24.228 107.13 25.3849C107.13 26.5419 106.894 27.5678 106.421 28.4627C105.948 29.3576 105.222 30.0607 104.244 30.5721C103.266 31.0771 102.017 31.3295 100.495 31.3295H95.1262V29.1818H100.419C101.467 29.1818 102.311 29.0284 102.95 28.7216C103.596 28.4148 104.062 27.9801 104.35 27.4176C104.644 26.8487 104.791 26.1712 104.791 25.3849C104.791 24.5987 104.644 23.9116 104.35 23.3235C104.056 22.7354 103.586 22.2816 102.94 21.962C102.295 21.636 101.441 21.473 100.38 21.473H96.2V39H93.8222ZM103.065 30.179L107.897 39H105.136L100.38 30.179H103.065Z" fill="black"/>
<rect x="118" y="20" width="14" height="18" rx="1" stroke="black" stroke-width="2"/>
<mask id="path-3-inside-1_5_3" fill="white">
<path d="M123 39.5H119V43.5L123 39.5Z"/>
</mask>
<path d="M119 39.5V17.5H97V39.5H119ZM123 39.5L138.556 55.0563L176.113 17.5L123 17.5V39.5ZM119 43.5H97V96.6127L134.556 59.0563L119 43.5ZM119 61.5H123V17.5H119V61.5ZM107.444 23.9437L103.444 27.9437L134.556 59.0563L138.556 55.0563L107.444 23.9437ZM141 43.5V39.5H97V43.5H141Z" fill="black" mask="url(#path-3-inside-1_5_3)"/>
<mask id="path-5-inside-2_5_3" fill="white">
<path d="M131.5 39.5H128.5H127.5L131.5 43.5V39.5Z"/>
</mask>
<path d="M131.5 39.5H146.5V24.5H131.5V39.5ZM131.5 43.5L120.893 54.1066L146.5 79.7132V43.5H131.5ZM127.5 39.5V24.5H91.2868L116.893 50.1066L127.5 39.5ZM128.5 54.5H131.5V24.5H128.5V54.5ZM116.5 39.5V43.5H146.5V39.5H116.5ZM142.107 32.8934L138.107 28.8934L116.893 50.1066L120.893 54.1066L142.107 32.8934ZM127.5 54.5H128.5V24.5H127.5V54.5Z" fill="black" mask="url(#path-5-inside-2_5_3)"/>
<circle cx="128.5" cy="23.5" r="1.5" fill="black"/>
</svg>
