<svg width="60" height="60" viewBox="0 0 60 60" fill="none" xmlns="http://www.w3.org/2000/svg">
<rect width="60" height="60" fill="black"/>
<path d="M22.4318 21.1818C22.2614 19.7424 21.5701 18.625 20.358 17.8295C19.1458 17.0341 17.6591 16.6364 15.8977 16.6364C14.6098 16.6364 13.483 16.8447 12.517 17.2614C11.5606 17.678 10.8125 18.2509 10.2727 18.9801C9.74242 19.7093 9.47727 20.5379 9.47727 21.4659C9.47727 22.2424 9.66193 22.91 10.0312 23.4688C10.41 24.018 10.893 24.4773 11.4801 24.8466C12.0672 25.2064 12.6828 25.5047 13.3267 25.7415C13.9706 25.9687 14.5625 26.1534 15.1023 26.2955L18.0568 27.0909C18.8144 27.2898 19.6572 27.5644 20.5852 27.9148C21.5227 28.2652 22.4176 28.7434 23.2699 29.3494C24.1316 29.946 24.8419 30.7131 25.4006 31.6506C25.9593 32.5881 26.2386 33.7386 26.2386 35.1023C26.2386 36.6742 25.8267 38.0947 25.0028 39.3636C24.1884 40.6326 22.9953 41.6411 21.4233 42.3892C19.8608 43.1373 17.9621 43.5114 15.7273 43.5114C13.6439 43.5114 11.84 43.1752 10.3153 42.5028C8.80019 41.8305 7.60701 40.893 6.7358 39.6903C5.87405 38.4877 5.38636 37.0909 5.27273 35.5H8.90909C9.00379 36.5985 9.37311 37.5076 10.017 38.2273C10.6705 38.9375 11.4943 39.4678 12.4886 39.8182C13.4924 40.1591 14.572 40.3295 15.7273 40.3295C17.072 40.3295 18.2794 40.1117 19.3494 39.6761C20.4195 39.2311 21.267 38.6155 21.892 37.8295C22.517 37.0341 22.8295 36.1061 22.8295 35.0455C22.8295 34.0795 22.5597 33.2936 22.0199 32.6875C21.4801 32.0814 20.7699 31.589 19.8892 31.2102C19.0085 30.8314 18.0568 30.5 17.0341 30.2159L13.4545 29.1932C11.1818 28.5398 9.38258 27.607 8.05682 26.3949C6.73106 25.1828 6.06818 23.5966 6.06818 21.6364C6.06818 20.0076 6.50852 18.5871 7.3892 17.375C8.27936 16.1534 9.47254 15.2064 10.9688 14.5341C12.4744 13.8523 14.1553 13.5114 16.0114 13.5114C17.8864 13.5114 19.553 13.8475 21.0114 14.5199C22.4697 15.1828 23.625 16.0919 24.4773 17.2472C25.339 18.4025 25.7936 19.714 25.8409 21.1818H22.4318ZM32.0305 43V13.9091H42.201C44.2275 13.9091 45.8989 14.2595 47.2152 14.9602C48.5315 15.6515 49.5116 16.5843 50.1555 17.7585C50.7995 18.9233 51.1214 20.2159 51.1214 21.6364C51.1214 22.8864 50.8989 23.9186 50.4538 24.733C50.0182 25.5473 49.4406 26.1913 48.7209 26.6648C48.0107 27.1383 47.2389 27.4886 46.4055 27.7159V28C47.2957 28.0568 48.1906 28.3693 49.0902 28.9375C49.9898 29.5057 50.7427 30.3201 51.3487 31.3807C51.9548 32.4413 52.2578 33.7386 52.2578 35.2727C52.2578 36.7311 51.9264 38.0426 51.2635 39.2074C50.6006 40.3722 49.5542 41.2955 48.1243 41.9773C46.6944 42.6591 44.8336 43 42.5419 43H32.0305ZM35.5533 39.875H42.5419C44.843 39.875 46.4766 39.4299 47.4425 38.5398C48.4179 37.6402 48.9055 36.5511 48.9055 35.2727C48.9055 34.2879 48.6546 33.3788 48.1527 32.5455C47.6508 31.7027 46.9358 31.0303 46.0078 30.5284C45.0798 30.017 43.9813 29.7614 42.7124 29.7614H35.5533V39.875ZM35.5533 26.6932H42.0874C43.148 26.6932 44.1044 26.4848 44.9567 26.0682C45.8184 25.6515 46.5002 25.0644 47.0021 24.3068C47.5135 23.5492 47.7692 22.6591 47.7692 21.6364C47.7692 20.358 47.3241 19.2737 46.4339 18.3835C45.5438 17.4839 44.1328 17.0341 42.201 17.0341H35.5533V26.6932Z" fill="white"/>
</svg>
